<svg width="344" height="358" viewBox="0 0 344 358" fill="none" xmlns="http://www.w3.org/2000/svg">
<path d="M93.8622 133.666C93.8622 133.666 91.1363 98.9061 101.359 75.7321C105.448 70.2801 108.175 72.3241 108.175 72.3241C108.175 72.3241 109.538 86.6371 106.13 100.268C102.722 113.9 100.678 140.481 100.678 140.481L93.8622 133.666Z" fill="#61A27D"/>
<path d="M91.8172 130.94C91.8172 130.94 91.1352 114.582 74.0962 100.269C57.0572 85.9562 53.6492 85.9562 53.6492 85.9562C53.6492 85.9562 67.2802 85.2742 76.8222 91.4092C86.3642 97.5432 89.7722 114.582 90.4542 117.309C91.1362 120.035 95.2252 130.941 95.2252 130.941L91.8172 130.94Z" fill="#578B71"/>
<path d="M102.871 133.446C102.871 133.446 106.065 117.389 125.105 105.871C144.146 94.3544 147.513 94.8794 147.513 94.8794C147.513 94.8794 134.149 92.1054 123.776 96.6964C113.403 101.287 107.411 117.598 106.317 120.186C105.224 122.775 99.5032 132.92 99.5032 132.92L102.871 133.446Z" fill="#578B71"/>
<path d="M95.2251 130.94C95.2251 130.94 77.5041 72.3252 61.8281 58.6932C62.5091 56.6482 80.9121 62.7822 86.3641 77.7772C91.8171 92.7712 93.1801 115.263 95.2251 121.398C97.2701 127.532 99.9961 132.985 99.9961 132.985" fill="#7CC97D"/>
<path d="M93.8621 133.666C93.8621 133.666 100.678 101.632 118.399 90.7271C119.762 94.8161 99.9971 128.213 102.041 143.208C104.085 158.202 93.8621 133.666 93.8621 133.666Z" fill="#7CC97D"/>
<path d="M84.1311 169.771H110.342C111.955 158.839 113.31 149.009 113.561 145.253C114.077 137.508 111.467 130.945 110.17 128.214H84.3031C83.0061 130.945 80.3961 137.508 80.9121 145.253C81.1621 149.009 82.5171 158.839 84.1311 169.771Z" fill="#A9A7E7"/>
<path d="M322.807 104.496H274.736V169.533H322.807V104.496Z" fill="#24ADB2"/>
<path d="M317.858 104.496H269.787V169.533H317.858V104.496Z" fill="#26C6DA"/>
<path d="M305.84 97.8979H257.769V169.533H305.84V97.8979Z" fill="#E1543C"/>
<path d="M300.892 97.8979H245.752V169.533H300.892V97.8979Z" fill="#FF634D"/>
<path d="M300.892 97.8979H291.466V169.533H300.892V97.8979Z" fill="#EB594D"/>
<path d="M25.6643 115.807C25.6643 115.807 18.1243 119.577 14.8253 130.417C11.5263 141.256 29.4353 170.476 29.4353 169.062C29.4353 167.648 47.3443 159.636 47.3443 159.636L38.3903 126.646L25.6643 115.807Z" fill="#202F7C"/>
<path d="M214.01 173.013L204.053 146.699H179.161L189.118 173.013" fill="#4F57A0"/>
<path d="M123.688 151.914H265.216L267.691 138.639H126.163" fill="#E2E7FF"/>
<path d="M138.689 71.4581L126.164 138.639H267.691L279.926 73.0131C280.413 70.4041 278.41 67.9941 275.756 67.9941H142.858C140.816 67.9941 139.063 69.4501 138.689 71.4581Z" fill="#243FA7"/>
<path d="M208.403 163.524L245.87 135.601L209.11 133.48L174.471 160.343L208.403 163.524Z" fill="white"/>
<path d="M197.917 154.452L207.343 149.268C207.343 149.268 216.445 145.498 216.71 145.498C216.975 145.498 217.77 146.382 216.798 148.237C215.826 150.093 213.263 150.535 213.263 150.535L211.584 155.218L220.303 153.981L222.306 153.51C222.306 153.51 220.892 157.045 220.303 157.869C219.714 158.694 216.415 160.815 216.415 160.815C216.415 160.815 210.17 165.999 207.932 166.588C205.693 167.177 197.917 167.53 197.917 167.53L192.969 167.412L188.374 168.355C188.374 168.355 186.018 163.996 186.371 157.869L197.917 154.452Z" fill="#FF8D68"/>
<path d="M253.764 176.131L281.098 354.275H287.696L269.787 175.188L253.764 176.131Z" fill="#E2E7FF"/>
<path d="M309.375 176.131L336.709 354.275H343.307L325.398 175.188L309.375 176.131Z" fill="#E2E7FF"/>
<path d="M149.139 176.131L121.805 354.275H115.207L133.116 175.188L149.139 176.131Z" fill="#C2D3EB"/>
<path d="M93.5282 176.131L66.1942 354.275H59.5962L77.5052 175.188L93.5282 176.131Z" fill="#C2D3EB"/>
<path d="M329.168 174.246H83.1602V182.729H329.168V174.246Z" fill="#A9A7E7"/>
<path d="M333.881 178.016H90.7013C88.0983 178.016 85.9883 175.906 85.9883 173.303C85.9883 170.7 88.0983 168.59 90.7013 168.59H333.881C336.484 168.59 338.594 170.7 338.594 173.303C338.594 175.906 336.484 178.016 333.881 178.016Z" fill="#FFC757"/>
<path d="M98.8462 336.367C98.8462 336.367 100.392 332.582 106.855 333.255C113.318 333.928 114.118 335.126 115.015 338.297C115.912 341.468 118.301 344.814 119.818 345.481C121.334 346.149 126.943 349.584 131.42 350.107C135.897 350.63 136.523 353.32 135.596 354.602C134.67 355.884 117.941 357.691 114.216 357.378C114.216 357.378 101.622 357.746 98.6132 356.904C95.6052 356.063 98.6602 337.613 98.8462 336.367Z" fill="#201360"/>
<path d="M100.56 309.229L98.6201 338.77C98.6201 338.77 103.225 340.253 106.73 342.821C111.909 346.616 116.15 342.021 116.15 342.021L117.318 323.434L100.56 309.229Z" fill="#FF8D68"/>
<path d="M138.064 257.191L118.977 339.194C118.977 339.194 109.08 340.608 97.0623 334.953C97.0623 334.953 107.666 257.899 108.373 252.95C109.08 248.001 136.65 252.95 138.064 257.191Z" fill="#202F7C"/>
<path d="M60.6931 45.036C60.6931 45.036 68.5291 46.496 73.6791 58.036C78.8291 69.576 77.5901 94.909 74.8771 98.06C72.1641 101.211 63.2501 100.668 50.7251 97.436C37.4911 94.022 32.2211 80.849 29.3171 72.123C23.7541 55.412 37.3801 36.93 60.6931 45.036Z" fill="#FF8D68"/>
<path d="M38.939 112.578L43.446 90.9889C43.446 90.9889 55.047 86.7529 62.965 94.1479L65.659 97.4349L66.576 111.237C66.576 111.237 54.416 114.52 38.939 112.578Z" fill="#FF8D68"/>
<path d="M38.6871 245.344C38.6871 245.344 63.9421 252.733 93.8971 251.714C123.852 250.694 127.816 242.201 128.75 234.103C129.684 226.005 106.383 221.079 96.2471 218.418C86.1111 215.757 51.4561 205.791 42.0841 215.899C32.7131 226.007 30.5331 238.436 38.6871 245.344Z" fill="#201360"/>
<path d="M168.832 336.367C168.832 336.367 170.378 332.582 176.841 333.255C183.304 333.928 184.104 335.126 185.001 338.297C185.898 341.468 188.287 344.814 189.804 345.481C191.32 346.149 196.929 349.584 201.406 350.107C205.883 350.63 206.509 353.32 205.582 354.602C204.655 355.884 187.927 357.691 184.202 357.378C184.202 357.378 171.608 357.746 168.599 356.904C165.59 356.063 168.645 337.613 168.832 336.367Z" fill="#201360"/>
<path d="M161.393 311.388L168.462 340.136C168.462 340.136 174.117 338.722 177.416 341.55C180.715 344.378 186.842 342.493 186.842 342.493L181.658 319.871L161.393 311.388Z" fill="#FF8D68"/>
<path d="M102.954 215.247C104.368 215.247 152.438 231.27 161.864 238.34C171.29 245.88 186.371 329.886 187.313 331.771C188.256 333.656 173.646 338.84 164.22 337.426C163.749 335.541 141.598 264.731 141.598 260.018C141.598 260.018 103.896 258.133 87.8721 255.305C71.8491 252.477 61.0091 252.006 54.4111 234.569C47.8131 217.132 86.4581 215.718 86.4581 215.718L102.954 215.247Z" fill="#202F7C"/>
<path d="M185.192 153.274C185.192 153.274 194.382 153.038 195.089 153.981C195.796 154.924 199.095 163.407 196.032 166.941C193.44 168.826 193.44 168.826 193.44 168.826H185.428L185.192 153.274Z" fill="#E2E7FF"/>
<path d="M37.3281 109.445L39.8021 103.083C39.8021 103.083 54.6471 98.4883 67.3721 104.143C70.5531 107.324 72.3211 112.273 72.3211 112.273L37.3281 109.445Z" fill="#E2E7FF"/>
<path d="M34.1472 110.152C34.1472 110.152 36.0322 106.853 39.3312 106.382C42.6302 105.911 57.7112 104.026 67.6082 106.853C71.3782 108.267 73.2632 110.152 73.2632 110.152C73.2632 110.152 87.4012 114.865 92.1142 117.692C96.8272 120.52 98.2412 142.199 99.1832 149.268C100.125 156.337 97.2982 163.878 97.2982 163.878C97.2982 163.878 108.609 210.063 108.609 216.661C108.609 223.259 104.839 230.799 91.6432 235.512C78.4472 240.225 42.6302 238.34 30.3762 230.799C26.6062 223.259 20.9502 133.715 20.0082 125.232C19.0662 116.75 34.1472 110.152 34.1472 110.152Z" fill="#202F7C"/>
<path d="M84.3381 115.807C84.3381 115.807 87.8731 113.686 96.3561 119.342C104.839 124.997 128.167 146.205 130.995 147.619C133.823 149.033 188.256 151.861 188.256 151.861C188.256 151.861 196.032 161.758 187.549 169.534C187.549 169.534 135.001 171.655 125.104 170.948C115.207 170.241 82.2171 151.154 82.2171 151.154C82.2171 151.154 68.7861 131.359 84.3381 115.807Z" fill="#202F7C"/>
<path d="M73.0093 147C73.0093 147 117.079 170.137 122.221 170.871C127.363 171.605 146.827 170.871 146.827 170.871" stroke="#1B2048" stroke-width="0.8263" stroke-miterlimit="10"/>
<path d="M132.504 152.876C132.504 152.876 133.973 160.956 128.831 165.73" stroke="#1B2048" stroke-width="0.8263" stroke-miterlimit="10"/>
<path d="M135.809 150.672C135.809 150.672 140.216 157.65 138.012 162.791" stroke="#1B2048" stroke-width="0.8263" stroke-miterlimit="10"/>
<path d="M72.6413 137.818C72.6413 137.818 68.9683 124.964 81.8223 116.517" stroke="#1B2048" stroke-width="0.8263" stroke-miterlimit="10"/>
<path d="M25.2663 125.699C25.2663 125.699 22.6953 148.469 22.6953 159.119" stroke="#1B2048" stroke-width="0.8263" stroke-miterlimit="10"/>
<path d="M38.4873 110.641C38.4873 110.641 55.3813 109.172 69.3363 110.641" stroke="#1B2048" stroke-width="0.8263" stroke-miterlimit="10"/>
<path d="M149.03 258.644C149.03 258.644 157.11 256.073 160.048 243.587" stroke="#1B2048" stroke-width="0.8263" stroke-miterlimit="10"/>
<path d="M154.539 259.746C154.539 259.746 159.313 258.277 161.517 251.666" stroke="#1B2048" stroke-width="0.8263" stroke-miterlimit="10"/>
<path d="M125.159 274.069L113.039 334.666" stroke="#1B2048" stroke-width="0.8263" stroke-miterlimit="10"/>
<path d="M71.9672 60.3142C71.9672 60.3142 73.3812 66.6762 67.7252 70.9182L68.0782 77.9872C68.0782 77.9872 70.1992 84.3492 68.7852 85.0562C67.3712 85.7632 67.0182 84.7022 67.0182 84.7022C67.0182 84.7022 62.4232 77.2792 61.0092 76.9262C59.5952 76.5722 64.1902 86.8232 64.1902 86.8232C64.1902 86.8232 59.5952 93.8922 51.1122 94.9522L52.8792 92.4782C52.8792 92.4782 48.9912 94.9522 42.9822 94.5992C36.9732 94.2452 32.3782 85.0562 32.3782 85.0562C32.3782 85.0562 33.4382 87.5302 32.3782 88.5912C31.3182 89.6512 25.3092 80.4612 24.9552 68.7972L23.1882 72.3322C23.1882 72.3322 23.5412 64.2022 26.7232 55.0122C29.9042 45.8222 44.0432 39.1062 51.8192 39.1062C59.5952 39.1062 67.3712 39.8132 69.4922 39.1062C71.6132 38.3992 70.5522 44.4082 70.5522 44.4082C70.5522 44.4082 71.6122 41.9342 71.9662 39.8132C73.3802 38.7532 75.5012 47.2362 74.7942 50.4172C74.0872 53.5982 74.0872 53.5982 74.0872 53.5982C74.0872 53.5982 76.5612 50.4172 76.9152 48.6492C78.3292 48.2962 77.9762 56.0722 71.9672 60.3142Z" fill="#201360"/>
<path d="M66.8383 77.924C66.8383 77.924 65.4103 73.192 61.4903 75.68C57.5713 78.168 63.1383 89.31 66.4163 88.349C69.6953 87.388 67.7003 79.723 66.8383 77.924Z" fill="#FF634D"/>
<path d="M210.288 159.872L220.303 157.869L222.306 153.509" stroke="#E66657" stroke-width="1.2805" stroke-miterlimit="10"/>
<path d="M219.949 158.104C219.949 158.104 214.883 162.346 214.176 162.699C213.469 163.053 210.288 163.877 210.288 163.877" stroke="#E66657" stroke-width="1.2805" stroke-miterlimit="10"/>
<path d="M65.2512 89.8872C65.2512 89.8872 63.8372 94.8352 72.3202 97.6632" stroke="#E66657" stroke-width="1.2805" stroke-miterlimit="10"/>
<path d="M258.476 127.118H183.072L192.497 78.105H267.902L258.476 127.118Z" fill="#2E60BE"/>
<path d="M158.842 95.0724C158.572 96.4774 159.648 97.7804 161.079 97.7804H243.169C244.261 97.7804 245.2 97.0054 245.406 95.9324L246.614 89.6504H159.884L158.842 95.0724Z" fill="#26C6F8"/>
<path d="M253.134 41.4062H171.044C169.952 41.4062 169.013 42.1813 168.807 43.2543L159.884 89.6513H246.614L255.371 44.1152C255.641 42.7092 254.565 41.4062 253.134 41.4062Z" fill="#CAE5FF"/>
<path d="M197.01 97.8148C198.091 94.8338 198.758 92.7028 198.758 92.7028C198.758 92.7028 201.234 79.7608 190.205 83.0808C190.205 83.0808 186.379 85.9508 184.578 92.0278C184.019 93.9148 183.352 95.9308 182.697 97.8148H197.01Z" fill="#387AB6"/>
<path d="M219.853 97.8152C219.65 91.4342 219.254 86.3172 218.565 84.9382C216.539 81.2242 208.268 77.8481 208.268 77.8481L196.958 79.5361C196.958 79.5361 192.231 80.8862 190.712 84.2632C190.202 85.3982 188.967 90.9181 187.648 97.8161L219.853 97.8152Z" fill="#DCE4FF"/>
<path d="M198.889 70.1902C198.889 70.1902 198.205 75.2492 196.701 78.9412C196.701 78.9412 196.291 81.8122 202.307 80.5822C208.323 79.3512 207.503 76.3432 207.503 76.3432V64.4482L198.889 70.1902Z" fill="#FF8D68"/>
<path d="M190.443 57.682C190.443 57.682 190.511 68.993 193.757 74.442C195.973 76.734 203.528 73.134 206.707 68.271C209.886 63.408 209.824 56.092 207.308 52.019C204.793 47.946 196.507 49.171 194.079 50.578C191.651 51.984 190.306 55.873 190.443 57.682Z" fill="#FF8D68"/>
<path d="M205.707 64.071C205.707 64.071 207.84 60.784 209.267 62.741C210.694 64.698 205.752 68.701 205.374 67.178C204.997 65.655 205.707 64.071 205.707 64.071Z" fill="#FBA894"/>
<path d="M190.443 57.682C190.443 57.682 186.475 54.193 191.261 49.681C193.996 47.63 195.363 49.134 198.234 48.587C201.105 48.04 206.301 48.587 208.215 51.595C210.129 54.603 209.445 61.576 208.899 62.26C208.352 62.944 206.711 63.354 206.711 64.584C206.711 65.815 206.438 66.772 206.027 66.772C205.617 66.772 205.617 64.721 205.617 63.217C205.617 61.713 205.344 58.842 204.66 56.791C203.976 54.74 200.832 54.877 199.601 55.15C198.371 55.423 197.556 58.573 190.443 57.682Z" fill="#713336"/>
<path opacity="0.53" d="M205.342 61.0803C205.342 61.0803 205.431 61.0353 205.568 60.9783C205.567 60.9743 205.567 60.9673 205.567 60.9673L205.342 61.0803Z" fill="#505E83"/>
<path d="M205.568 60.9782C205.593 61.2022 206.309 67.7512 203.71 69.5762C201.009 71.3772 200.897 69.0702 198.758 68.7322C196.62 68.3942 194.875 68.5072 193.919 69.9142C193.075 71.3212 193.244 71.9402 192.456 71.5462C192.287 71.9962 193.469 74.7532 195.27 75.4852C197.071 76.2162 201.347 73.9662 203.26 72.2782C205.173 70.5902 206.355 69.5212 206.692 68.0582C207.03 66.5952 206.861 63.7812 207.255 61.8122C207.481 60.3242 206.12 60.7492 205.568 60.9782ZM195.72 73.0652C193.132 72.5022 193.469 70.4772 196.114 69.6332C196.114 69.6332 198.927 68.3392 199.884 70.3082C200.278 71.6022 198.308 73.6282 195.72 73.0652Z" fill="#713336"/>
<path d="M207.508 75.4849C207.508 75.4849 204.216 79.6209 198.814 80.1269C197.717 79.7049 197.126 77.6789 197.126 77.6789L196.282 78.9449C196.282 78.9449 195.86 81.4769 196.282 82.4899C196.788 82.5739 198.645 81.3079 198.645 81.3079C198.645 81.3079 199.911 83.0809 200.839 83.4179C201.767 83.7549 207.676 79.7889 208.266 77.8469C208.268 77.8479 208.226 76.4549 207.508 75.4849Z" fill="white"/>
<path d="M220.715 97.8152C220.421 91.5252 220.045 86.7172 219.691 85.7262C218.341 82.5752 213.276 78.5241 208.268 77.8481C208.268 77.8481 206.387 86.5312 204.536 97.8152H220.715Z" fill="#387AB6"/>
<path d="M191.582 97.815C194.235 86.557 196.283 79.874 196.283 79.874C194.764 80.043 192.063 81.224 190.206 83.081C189.198 85.097 187.632 90.887 186.015 97.815H191.582Z" fill="#387AB6"/>
<path d="M219.703 97.8152C219.887 91.7932 219.55 86.2252 218.566 84.9382C215.359 82.2372 211.983 82.4062 210.295 85.4452C209.372 87.1062 208.147 92.9012 207.226 97.8162L219.703 97.8152Z" fill="#387AB6"/>
<path d="M198.646 81.3081C197.689 85.2071 196.896 89.1501 196.179 93.1001" stroke="#87B8EB" stroke-width="0.3595" stroke-miterlimit="10"/>
<path d="M260.611 50.3617C268.567 43.3361 270.576 32.6109 265.097 26.4064C259.619 20.2019 248.727 20.8676 240.771 27.8932C232.814 34.9189 230.806 45.644 236.284 51.8485C241.763 58.053 252.654 57.3874 260.611 50.3617Z" fill="#6787FF"/>
<path d="M271.104 57.3481C270.464 59.9131 267.866 61.9931 265.301 61.9931C262.736 61.9931 261.175 59.9131 261.814 57.3481C262.454 54.7831 265.052 52.7031 267.617 52.7031C270.182 52.7031 271.743 54.7821 271.104 57.3481Z" fill="#6787FF"/>
<path d="M246.308 47.741C245.774 47.741 245.291 47.537 244.985 47.13L240.599 41.2871C239.987 40.4721 240.316 39.1511 241.335 38.3361C242.353 37.5211 243.674 37.5211 244.286 38.3361L247.565 42.7031L259.278 33.328C260.296 32.513 261.617 32.513 262.229 33.328C262.841 34.143 262.512 35.464 261.493 36.279L247.937 47.13C247.426 47.537 246.841 47.741 246.308 47.741Z" fill="white"/>
<path d="M125.976 10.825H120.425C119.031 10.825 118.183 9.69502 118.531 8.30202L119.915 2.75103C120.263 1.35703 121.674 0.228027 123.067 0.228027H128.618C130.012 0.228027 130.86 1.35803 130.512 2.75103L129.128 8.30202C128.781 9.69602 127.37 10.825 125.976 10.825Z" fill="#BFD9FF"/>
<path d="M121.92 27.0999H116.368C114.975 27.0999 114.126 25.9699 114.474 24.5769L115.859 19.0259C116.207 17.6329 117.617 16.5029 119.01 16.5029H124.562C125.955 16.5029 126.804 17.6329 126.456 19.0259L125.071 24.5769C124.724 25.9699 123.313 27.0999 121.92 27.0999Z" stroke="#A9A7E7" stroke-width="0.75" stroke-miterlimit="10"/>
<path d="M139.581 27.0999H134.03C132.636 27.0999 131.788 25.9699 132.136 24.5769L133.52 19.0259C133.868 17.6329 135.279 16.5029 136.672 16.5029H142.223C143.617 16.5029 144.465 17.6329 144.117 19.0259L142.733 24.5769C142.386 25.9699 140.975 27.0999 139.581 27.0999Z" fill="#26C6DA"/>
<path d="M157.244 27.0999H151.693C150.299 27.0999 149.451 25.9699 149.799 24.5769L151.183 19.0259C151.53 17.6329 152.942 16.5029 154.335 16.5029H159.886C161.279 16.5029 162.128 17.6329 161.78 19.0259L160.396 24.5769C160.049 25.9699 158.638 27.0999 157.244 27.0999Z" fill="white"/>
<path d="M117.767 43.7532H112.216C110.823 43.7532 109.974 42.6232 110.322 41.2302L111.706 35.6793C112.054 34.2853 113.465 33.1562 114.858 33.1562H120.409C121.803 33.1562 122.651 34.2863 122.303 35.6793L120.919 41.2302C120.572 42.6232 119.16 43.7532 117.767 43.7532Z" fill="#26C6DA"/>
<path d="M113.332 61.5413H107.781C106.387 61.5413 105.539 60.4113 105.887 59.0183L107.271 53.4673C107.618 52.0743 109.03 50.9443 110.423 50.9443H115.974C117.367 50.9443 118.216 52.0743 117.868 53.4673L116.484 59.0183C116.136 60.4123 114.725 61.5413 113.332 61.5413Z" fill="white"/>
<path d="M135.429 43.7532H129.878C128.484 43.7532 127.636 42.6232 127.984 41.2302L129.368 35.6793C129.715 34.2853 131.127 33.1562 132.52 33.1562H138.071C139.464 33.1562 140.313 34.2863 139.965 35.6793L138.581 41.2302C138.234 42.6232 136.823 43.7532 135.429 43.7532Z" fill="#EDF4FF"/>
<path d="M127.691 74.7884H122.14C120.746 74.7884 119.898 73.6584 120.246 72.2654L121.63 66.7144C121.978 65.3214 123.389 64.1914 124.782 64.1914H130.333C131.727 64.1914 132.575 65.3214 132.227 66.7144L130.843 72.2654C130.496 73.6584 129.085 74.7884 127.691 74.7884Z" stroke="#A9A7E7" stroke-width="0.75" stroke-miterlimit="10"/>
<path d="M294.685 53.224H292.647C292.135 53.224 291.824 52.809 291.952 52.298L292.46 50.26C292.588 49.748 293.106 49.334 293.617 49.334H295.655C296.167 49.334 296.478 49.749 296.35 50.26L295.842 52.298C295.714 52.81 295.196 53.224 294.685 53.224Z" fill="#CAE5FF"/>
<path d="M293.195 59.1991H291.157C290.645 59.1991 290.334 58.7841 290.462 58.2731L290.97 56.2351C291.098 55.7231 291.616 55.3091 292.127 55.3091H294.165C294.677 55.3091 294.988 55.7241 294.86 56.2351L294.352 58.2731C294.225 58.7841 293.707 59.1991 293.195 59.1991Z" fill="#CAE5FF"/>
<path d="M299.679 59.1991H297.641C297.129 59.1991 296.818 58.7841 296.946 58.2731L297.454 56.2351C297.582 55.7231 298.1 55.3091 298.611 55.3091H300.649C301.161 55.3091 301.472 55.7241 301.344 56.2351L300.836 58.2731C300.709 58.7841 300.191 59.1991 299.679 59.1991Z" fill="#CAE5FF"/>
<path d="M306.163 59.1991H304.125C303.613 59.1991 303.302 58.7841 303.43 58.2731L303.938 56.2351C304.066 55.7231 304.584 55.3091 305.095 55.3091H307.133C307.645 55.3091 307.956 55.7241 307.828 56.2351L307.32 58.2731C307.193 58.7841 306.675 59.1991 306.163 59.1991Z" fill="#CAE5FF"/>
<path d="M291.671 65.3119H289.633C289.121 65.3119 288.81 64.8969 288.938 64.3859L289.446 62.3479C289.574 61.8359 290.092 61.4219 290.603 61.4219H292.641C293.153 61.4219 293.464 61.8369 293.336 62.3479L292.828 64.3859C292.701 64.8969 292.183 65.3119 291.671 65.3119Z" fill="#CAE5FF"/>
<path d="M290.043 71.8417H288.005C287.493 71.8417 287.182 71.4267 287.31 70.9157L287.818 68.8777C287.946 68.3657 288.464 67.9517 288.975 67.9517H291.013C291.525 67.9517 291.836 68.3667 291.708 68.8777L291.2 70.9157C291.072 71.4277 290.554 71.8417 290.043 71.8417Z" fill="#CAE5FF"/>
<path d="M298.155 65.3119H296.117C295.605 65.3119 295.294 64.8969 295.422 64.3859L295.93 62.3479C296.058 61.8359 296.576 61.4219 297.087 61.4219H299.125C299.637 61.4219 299.948 61.8369 299.82 62.3479L299.312 64.3859C299.185 64.8969 298.666 65.3119 298.155 65.3119Z" fill="#CAE5FF"/>
<path d="M295.314 76.7049H293.276C292.764 76.7049 292.453 76.2899 292.581 75.7789L293.089 73.7409C293.217 73.2289 293.735 72.8149 294.246 72.8149H296.284C296.796 72.8149 297.107 73.2299 296.979 73.7409L296.471 75.7789C296.344 76.2909 295.826 76.7049 295.314 76.7049Z" fill="#CAE5FF"/>
<path opacity="0.9" d="M294.032 130.436H227.034C226.33 130.436 225.815 129.771 225.993 129.089L232.247 105.059C232.37 104.585 232.799 104.254 233.288 104.254H300.286C300.99 104.254 301.505 104.919 301.327 105.601L295.073 129.631C294.95 130.105 294.522 130.436 294.032 130.436Z" fill="#BFD9FF"/>
<path d="M236.223 109.394H259.536" stroke="#A9C2FF" stroke-width="1.076" stroke-miterlimit="10" stroke-linecap="round" stroke-linejoin="round"/>
<path d="M234.429 120.154H257.742" stroke="#A9C2FF" stroke-width="1.076" stroke-miterlimit="10" stroke-linecap="round" stroke-linejoin="round"/>
<path d="M244.233 116.089H267.546" stroke="#A9C2FF" stroke-width="1.076" stroke-miterlimit="10" stroke-linecap="round" stroke-linejoin="round"/>
<path d="M235.625 112.981H242.619" stroke="#A9C2FF" stroke-width="1.076" stroke-miterlimit="10" stroke-linecap="round" stroke-linejoin="round"/>
<path d="M234.668 116.089H241.662" stroke="#A9C2FF" stroke-width="1.076" stroke-miterlimit="10" stroke-linecap="round" stroke-linejoin="round"/>
<path d="M263.242 109.394H271.551" stroke="#A9C2FF" stroke-width="1.076" stroke-miterlimit="10" stroke-linecap="round" stroke-linejoin="round"/>
<path d="M267.313 125.202H254.905C254.842 125.202 254.797 125.143 254.813 125.082L255.368 122.949C255.379 122.907 255.417 122.877 255.461 122.877H267.868C267.931 122.877 267.976 122.936 267.961 122.997L267.406 125.131C267.395 125.173 267.357 125.202 267.313 125.202Z" stroke="#84AEE5" stroke-width="0.3587" stroke-miterlimit="10"/>
<path d="M251.891 125.202H239.483C239.42 125.202 239.375 125.143 239.391 125.082L239.946 122.949C239.957 122.907 239.995 122.877 240.038 122.877H252.446C252.509 122.877 252.554 122.936 252.538 122.997L251.983 125.131C251.972 125.173 251.934 125.202 251.891 125.202Z" stroke="#84AEE5" stroke-width="0.3587" stroke-miterlimit="10"/>
<path d="M289.121 122.109C288.485 121.262 285.905 120.646 285.192 119.799C284.828 119.366 284.828 118.562 284.915 117.879C285.169 117.717 285.38 117.555 285.505 117.404C285.719 117.091 285.961 116.654 286.203 116.174C286.276 116.246 286.374 116.301 286.5 116.298C286.839 116.288 288.128 114.532 287.796 114.126C287.606 113.893 287.299 114.095 287.071 114.311C287.412 113.529 287.652 112.93 287.652 112.93H287.639C287.671 112.831 287.701 112.732 287.726 112.632C288.238 110.58 286.989 108.916 284.937 108.916C282.885 108.916 280.807 110.58 280.295 112.632C280.27 112.733 280.25 112.832 280.234 112.93H280.221C280.221 112.93 280.162 113.529 280.114 114.311C279.993 114.096 279.787 113.894 279.481 114.126C278.946 114.533 279.36 116.288 279.694 116.298C279.818 116.302 279.944 116.246 280.052 116.174C280.055 116.654 280.078 117.091 280.136 117.404C280.198 117.588 280.377 117.79 280.611 117.987C280.356 118.646 279.967 119.389 279.417 119.799C278.282 120.646 275.394 121.262 274.336 122.109C273.384 122.871 272.535 125.096 272.374 125.536H289.376C289.432 125.096 289.693 122.871 289.121 122.109Z" fill="#387AB6"/>
<path d="M203.188 121.866H148.212C143.386 121.866 140.449 117.953 141.652 113.127C142.855 108.301 147.743 104.388 152.57 104.388H207.546C212.372 104.388 215.309 108.301 214.106 113.127C212.903 117.953 208.015 121.866 203.188 121.866Z" fill="white"/>
<path d="M154.044 115.409L151.687 116.505C151.465 116.608 151.277 116.442 151.369 116.223L152.346 113.902C152.383 113.815 152.376 113.727 152.328 113.665L151.052 112.021C150.932 111.866 151.087 111.597 151.314 111.565L153.729 111.226C153.819 111.213 153.908 111.159 153.967 111.08L155.535 108.969C155.683 108.77 155.966 108.77 156.015 108.969L156.531 111.08C156.55 111.159 156.612 111.214 156.696 111.226L158.942 111.565C159.153 111.597 159.174 111.866 158.976 112.021L156.88 113.665C156.802 113.726 156.751 113.815 156.744 113.902L156.564 116.223C156.547 116.441 156.276 116.608 156.106 116.505L154.295 115.409C154.225 115.368 154.132 115.368 154.044 115.409Z" fill="#FFA402"/>
<path d="M165.651 115.409L163.294 116.505C163.072 116.608 162.884 116.442 162.976 116.223L163.953 113.902C163.99 113.815 163.983 113.727 163.935 113.665L162.659 112.021C162.539 111.866 162.694 111.597 162.921 111.565L165.336 111.226C165.426 111.213 165.515 111.159 165.574 111.08L167.142 108.969C167.29 108.77 167.573 108.77 167.622 108.969L168.138 111.08C168.157 111.159 168.219 111.214 168.303 111.226L170.549 111.565C170.76 111.597 170.781 111.866 170.584 112.021L168.488 113.665C168.41 113.726 168.359 113.815 168.352 113.902L168.171 116.223C168.154 116.441 167.883 116.608 167.713 116.505L165.902 115.409C165.832 115.368 165.739 115.368 165.651 115.409Z" fill="#FFA402"/>
<path d="M177.259 115.409L174.902 116.505C174.68 116.608 174.492 116.442 174.584 116.223L175.561 113.902C175.597 113.815 175.591 113.727 175.543 113.665L174.267 112.021C174.147 111.866 174.302 111.597 174.529 111.565L176.944 111.226C177.034 111.213 177.123 111.159 177.182 111.08L178.75 108.969C178.898 108.77 179.181 108.77 179.229 108.969L179.745 111.08C179.764 111.159 179.826 111.214 179.91 111.226L182.156 111.565C182.367 111.597 182.388 111.866 182.19 112.021L180.094 113.665C180.016 113.726 179.965 113.815 179.958 113.902L179.777 116.223C179.76 116.441 179.489 116.608 179.319 116.505L177.508 115.409C177.44 115.368 177.347 115.368 177.259 115.409Z" fill="#FFA402"/>
<path d="M188.865 115.409L186.508 116.505C186.286 116.608 186.098 116.442 186.19 116.223L187.167 113.902C187.204 113.815 187.197 113.727 187.149 113.665L185.873 112.021C185.753 111.866 185.908 111.597 186.135 111.565L188.549 111.226C188.639 111.213 188.729 111.159 188.787 111.08L190.356 108.969C190.504 108.77 190.787 108.77 190.835 108.969L191.351 111.08C191.37 111.159 191.432 111.214 191.516 111.226L193.762 111.565C193.973 111.597 193.994 111.866 193.797 112.021L191.701 113.665C191.623 113.726 191.572 113.815 191.565 113.902L191.384 116.223C191.367 116.441 191.096 116.608 190.926 116.505L189.115 115.409C189.047 115.368 188.954 115.368 188.865 115.409Z" fill="#FFA402"/>
<path d="M200.472 115.409L198.115 116.505C197.893 116.608 197.705 116.442 197.797 116.223L198.774 113.902C198.81 113.815 198.804 113.727 198.756 113.665L197.48 112.021C197.36 111.866 197.515 111.597 197.742 111.565L200.156 111.226C200.246 111.213 200.335 111.159 200.394 111.08L201.962 108.969C202.11 108.77 202.393 108.77 202.442 108.969L202.958 111.08C202.977 111.159 203.039 111.214 203.123 111.226L205.369 111.565C205.58 111.597 205.601 111.866 205.403 112.021L203.307 113.665C203.229 113.726 203.178 113.815 203.171 113.902L202.99 116.223C202.973 116.441 202.702 116.608 202.532 116.505L200.721 115.409C200.654 115.368 200.561 115.368 200.472 115.409Z" fill="#C2D4D9"/>
<path d="M68.0052 88.1471C70.5153 88.1471 72.5502 85.3108 72.5502 81.8121C72.5502 78.3133 70.5153 75.4771 68.0052 75.4771C65.4951 75.4771 63.4602 78.3133 63.4602 81.8121C63.4602 85.3108 65.4951 88.1471 68.0052 88.1471Z" fill="#202F7C"/>
<path d="M68.6931 82.3633C68.6931 82.3633 81.3631 96.4103 81.3631 98.6143C81.3631 100.817 77.2311 100.542 77.2311 100.542" stroke="#202F7C" stroke-width="1.1018" stroke-miterlimit="10"/>
<path d="M78.1961 100.542C78.1961 101.455 77.4561 102.195 76.5431 102.195C75.6301 102.195 74.8901 101.455 74.8901 100.542C74.8901 99.6292 75.6301 98.8892 76.5431 98.8892C77.4561 98.8892 78.1961 99.6292 78.1961 100.542Z" fill="#202F7C"/>
<path d="M46.1653 264.967C50.6653 272.73 64.7823 278.398 81.5113 278.398C98.2403 278.398 112.357 272.73 116.857 264.967H46.1653Z" fill="#4F57A0"/>
<path d="M141.599 225.144L133.116 264.26H127.932L132.645 226.087L141.599 225.144Z" fill="#A9A7E7"/>
<path d="M157.151 228.443H81.2134V219.017H149.61C153.775 219.017 157.15 222.393 157.15 226.557L157.151 228.443Z" fill="#7A82CC"/>
<path d="M19.0663 260.019L0.687334 171.627C-0.0426657 168.116 2.63833 164.82 6.22433 164.82H67.0413C70.3913 164.82 73.2803 167.171 73.9623 170.45L92.5853 260.018" fill="#A9A7E7"/>
<path d="M143.963 269.715H28.4714C24.5744 269.715 21.1444 267.143 20.0534 263.401L19.0674 260.019H143.964V269.715H143.963Z" fill="#A9A7E7"/>
<path d="M87.1663 274.157H77.9763V356.16H87.1663V274.157Z" fill="#E2E7FF"/>
<path d="M87.1663 289.356L77.9763 296.779V274.157H87.1663V289.356Z" fill="#4F57A0"/>
<path d="M86.8843 343.939H83.5233H82.6833H79.3223L44.8723 357.617H121.334L86.8843 343.939Z" fill="#E2E7FF"/>
<path d="M8.78833 170.867H63.4543" stroke="#4F57A0" stroke-miterlimit="10"/>
<path d="M69.1213 177.2L78.4543 224.2" stroke="#4F57A0" stroke-miterlimit="10"/>
<path d="M80.1213 232.534L82.1213 246.2" stroke="#4F57A0" stroke-miterlimit="10"/>
</svg>
